<?xml version="1.0" encoding="utf-8"?>
<!-- Generator: Adobe Illustrator 24.2.3, SVG Export Plug-In . SVG Version: 6.00 Build 0)  -->
<svg version="1.1" width="32" height="32" id="Layer_1" xmlns="http://www.w3.org/2000/svg" xmlns:xlink="http://www.w3.org/1999/xlink" x="0px" y="0px"
	 viewBox="0 0 295.7 304.9" style="enable-background:new 0 0 295.7 304.9;" xml:space="preserve">
<style type="text/css">
	.st0{fill:#9FA628;}
</style>
<g>
	<path class="st0" d="M139.8,30.6c5.4,0,10.8,0,16.2,0c0.8,0.2,1.5,0.4,2.3,0.5c4.9,0.7,9.9,1.1,14.8,2.1
		c25.5,5.5,47.2,17.9,64.8,37.2c15.8,17.4,25.9,37.6,29.9,60.8c0.8,4.3,1.3,8.7,1.9,13.1c0,5.4,0,10.8,0,16.2
		c-0.2,0.7-0.4,1.4-0.4,2c-0.5,4.2-0.8,8.4-1.6,12.5c-6,30.1-20.9,54.8-45.2,73.6c-28.8,22.2-61.4,30-97,23.5
		c-29.9-5.5-54.5-20.6-73.2-44.5c-22.6-28.9-30.5-61.8-23.9-97.8c5.5-29.8,20.7-54.1,44.4-73c15.9-12.6,33.9-20.7,54-24.2
		C131,31.8,135.4,31.3,139.8,30.6z M148.1,49.6c-56.7-0.1-102.8,45.7-103,102.4c-0.2,56.8,45.8,103,102.6,103.1
		c56.7,0.1,102.8-45.7,103-102.4C250.8,95.9,204.9,49.7,148.1,49.6z"/>
	<path class="st0" d="M161.8,152.4c-0.7-0.7-1.3-1.4-1.9-2c-12.5-12.6-25.1-25.1-37.7-37.7c-2.7-2.7-3.7-5.9-2.6-9.6
		c1-3.7,3.6-5.9,7.3-6.7c3.2-0.7,6,0.2,8.3,2.5c15.5,15.5,31.1,31,46.6,46.6c4.3,4.3,4.1,9.7-0.5,14.3c-9,9-18,18-27.1,27.1
		c-6.2,6.2-12.5,12.4-18.7,18.7c-3,3-6.4,4.3-10.6,2.9c-5.7-2-8.1-9.1-4.6-14.1c0.7-1,1.6-2,2.5-2.9c12.4-12.4,24.7-24.8,37.1-37.2
		C160.6,153.7,161.2,153.1,161.8,152.4z"/>
</g>
</svg>
