<svg width="24" height="24" xmlns="http://www.w3.org/2000/svg" viewBox="0 0 33.18 33.19">
  <defs>
    <style>
      .cls-1 {
        fill: #eb5857;
      }
    </style>
  </defs>
  <g id="Layer_2" data-name="Layer 2">
    <g id="Layer_1-2" data-name="Layer 1">
      <path class="cls-1"
        d="M32.59,29.77a2,2,0,0,1,0,2.83,2,2,0,0,1-2.82,0L16.59,19.42,3.41,32.6A2,2,0,0,1,2,33.19a2,2,0,0,1-1.4-.59,2,2,0,0,1,0-2.83L13.77,16.59.59,3.41A2,2,0,0,1,.59.59a2,2,0,0,1,2.82,0L16.59,13.77,29.77.59a2,2,0,0,1,2.82,0,2,2,0,0,1,0,2.82L19.41,16.59Z" />
    </g>
  </g>
</svg>
