<svg width="32" height="32" viewBox="0 0 32 32" fill="none" xmlns="http://www.w3.org/2000/svg">
<path d="M29.3238 10.6C29.3198 10.504 29.3105 10.4066 29.2852 10.3146C29.2758 10.2813 29.2572 10.2493 29.2452 10.216C29.2172 10.14 29.1918 10.0653 29.1518 9.99596C29.1305 9.95996 29.1012 9.93062 29.0758 9.89595C29.0332 9.83595 28.9918 9.77462 28.9398 9.72262C28.9092 9.69329 28.8692 9.66929 28.8358 9.64129C28.7838 9.59862 28.7358 9.55196 28.6758 9.51596C28.6705 9.51196 28.6638 9.51196 28.6572 9.50796C28.6532 9.50662 28.6505 9.50262 28.6465 9.49996L16.6745 2.84662C16.2732 2.62262 15.7852 2.62396 15.3812 2.84529L3.35317 9.49862C3.34917 9.50262 3.34517 9.50795 3.3385 9.51195C3.3345 9.51329 3.32917 9.51462 3.32517 9.51729C3.2785 9.54396 3.24384 9.58262 3.19984 9.61462C3.15184 9.65062 3.10117 9.68262 3.0585 9.72396C3.0185 9.76529 2.98784 9.81329 2.95317 9.85996C2.91717 9.90662 2.87717 9.94796 2.84784 9.99862C2.81317 10.056 2.7945 10.1213 2.76917 10.184C2.7505 10.228 2.7265 10.2693 2.7145 10.3173C2.68917 10.4066 2.68117 10.5026 2.67584 10.5973C2.6745 10.62 2.6665 10.64 2.6665 10.664V10.6653V10.6666V21.3333C2.6665 21.8173 2.92917 22.264 3.35317 22.4986L15.3238 29.148L15.3252 29.1493C15.3265 29.1493 15.3265 29.1493 15.3278 29.1506L15.3545 29.1653C15.4118 29.1973 15.4745 29.2146 15.5345 29.2373C15.5772 29.2546 15.6185 29.2773 15.6638 29.2893C15.7718 29.3173 15.8865 29.3333 15.9998 29.3333C16.1132 29.3333 16.2278 29.3173 16.3385 29.2893C16.3825 29.2773 16.4238 29.2546 16.4678 29.2373C16.5278 29.2146 16.5905 29.1986 16.6478 29.1653L16.6745 29.1506C16.6758 29.1493 16.6758 29.1493 16.6772 29.1493L16.6785 29.148L28.6492 22.4986C29.0705 22.264 29.3332 21.8173 29.3332 21.3333V10.6666V10.6653V10.664C29.3332 10.6413 29.3252 10.6226 29.3238 10.6ZM15.9625 15.8293L6.74384 10.6733L10.4265 8.63596L19.5385 13.8426L15.9625 15.8293ZM16.0265 5.53729L25.2545 10.6666L22.2625 12.3293L13.1558 7.12529L16.0265 5.53729ZM17.3332 25.7346L17.3358 18.1626L21.3332 15.9253V20L23.9998 18.6666V14.4333L26.6665 12.9413V20.548L17.3332 25.7346Z" fill="currentColor"/>
</svg>
