<svg width="32" height="32" viewBox="0 0 33 32" fill="none" xmlns="http://www.w3.org/2000/svg">
<path d="M22.25 15H17.5V10.25C17.5 10.1125 17.3875 10 17.25 10H15.75C15.6125 10 15.5 10.1125 15.5 10.25V15H10.75C10.6125 15 10.5 15.1125 10.5 15.25V16.75C10.5 16.8875 10.6125 17 10.75 17H15.5V21.75C15.5 21.8875 15.6125 22 15.75 22H17.25C17.3875 22 17.5 21.8875 17.5 21.75V17H22.25C22.3875 17 22.5 16.8875 22.5 16.75V15.25C22.5 15.1125 22.3875 15 22.25 15Z" fill="currentColor"/>
<path d="M16.5 2C8.76875 2 2.5 8.26875 2.5 16C2.5 23.7313 8.76875 30 16.5 30C24.2313 30 30.5 23.7313 30.5 16C30.5 8.26875 24.2313 2 16.5 2ZM16.5 27.625C10.0813 27.625 4.875 22.4188 4.875 16C4.875 9.58125 10.0813 4.375 16.5 4.375C22.9188 4.375 28.125 9.58125 28.125 16C28.125 22.4188 22.9188 27.625 16.5 27.625Z" fill="currentColor"/>
</svg>
