<svg width="32" height="32" viewBox="0 0 32 32" fill="none" xmlns="http://www.w3.org/2000/svg">
<path d="M27.8936 3.17866C26.3956 2.83898 24.8644 2.66725 23.3283 2.66666C19.8816 2.66666 17.111 3.61732 15.3136 5.41466C13.8938 6.83356 12.4827 8.26114 11.0803 9.69732C9.46165 9.51466 5.64431 9.42666 3.05764 12.0147C2.93324 12.1381 2.8345 12.285 2.76711 12.4467C2.69973 12.6085 2.66504 12.7821 2.66504 12.9573C2.66504 13.1326 2.69973 13.3061 2.76711 13.4679C2.8345 13.6297 2.93324 13.7765 3.05764 13.9L18.1416 28.984C18.2652 29.1082 18.4121 29.2068 18.5738 29.2741C18.7356 29.3414 18.9091 29.376 19.0843 29.376C19.2595 29.376 19.433 29.3414 19.5948 29.2741C19.7566 29.2068 19.9034 29.1082 20.027 28.984C22.6323 26.38 22.5523 22.5653 22.383 20.9707L26.6283 16.7267C30.883 12.472 28.9483 4.48399 28.8643 4.14666C28.8053 3.91254 28.6839 3.69884 28.5129 3.52836C28.342 3.35787 28.1279 3.23701 27.8936 3.17866ZM24.743 14.8427L20.0283 19.556C19.8732 19.7112 19.7587 19.9023 19.6952 20.1123C19.6317 20.3224 19.6211 20.5448 19.6643 20.76C19.671 20.7933 20.207 23.7493 18.9496 26.0187L6.02298 13.0933C8.28964 11.8427 11.2776 12.4213 11.287 12.4213C11.727 12.5147 12.199 12.3733 12.5176 12.044C12.5216 12.04 14.3923 10.1067 17.2003 7.29866C18.8243 5.67466 21.4283 5.33332 23.3283 5.33332C24.591 5.33332 25.719 5.48132 26.4376 5.60399C26.763 7.51199 27.271 12.3133 24.743 14.8427Z" fill="currentColor"/>
<path d="M20.9704 13.7387C22.4431 13.7387 23.637 12.5448 23.637 11.072C23.637 9.59924 22.4431 8.40533 20.9704 8.40533C19.4976 8.40533 18.3037 9.59924 18.3037 11.072C18.3037 12.5448 19.4976 13.7387 20.9704 13.7387Z" fill="currentColor"/>
<path d="M6.66667 21.3333C4 22.6667 4 28 4 28C4 28 8 28 10.6667 25.3333L6.66667 21.3333Z" fill="currentColor"/>
</svg>
