<svg width="32" height="32" viewBox="0 0 32 32" fill="none" xmlns="http://www.w3.org/2000/svg">
<path d="M11.75 5.75H11.5C11.6375 5.75 11.75 5.6375 11.75 5.5V5.75H21.25V5.5C21.25 5.6375 21.3625 5.75 21.5 5.75H21.25V8H23.5V5.5C23.5 4.39688 22.6031 3.5 21.5 3.5H11.5C10.3969 3.5 9.5 4.39688 9.5 5.5V8H11.75V5.75ZM27.5 8H5.5C4.94687 8 4.5 8.44688 4.5 9V10C4.5 10.1375 4.6125 10.25 4.75 10.25H6.6375L7.40938 26.5938C7.45938 27.6594 8.34063 28.5 9.40625 28.5H23.5938C24.6625 28.5 25.5406 27.6625 25.5906 26.5938L26.3625 10.25H28.25C28.3875 10.25 28.5 10.1375 28.5 10V9C28.5 8.44688 28.0531 8 27.5 8ZM23.3531 26.25H9.64688L8.89062 10.25H24.1094L23.3531 26.25Z" fill="currentColor"/>
</svg>
