<svg width="116" height="117" viewBox="0 0 116 117" fill="none" xmlns="http://www.w3.org/2000/svg">
<g clip-path="url(#clip0)">
<path d="M5.95629 83.7187C5.80325 83.4078 5.65262 83.0951 5.50488 82.781C5.65238 83.0954 5.80325 83.4078 5.95629 83.7187Z" fill="#FF4F19"/>
<path d="M5.37402 82.4998C5.23254 82.1944 5.09298 81.888 4.95654 81.58C5.09273 81.8883 5.23254 82.1944 5.37402 82.4998Z" fill="#FF4F19"/>
<path d="M4.8212 81.2699C4.6891 80.9667 4.5582 80.6625 4.43115 80.3566C4.5582 80.6625 4.6891 80.9665 4.8212 81.2699Z" fill="#FF4F19"/>
<path d="M4.30003 80.0333C4.17514 79.7275 4.05098 79.4208 3.93115 79.1123C4.05098 79.4211 4.17514 79.7275 4.30003 80.0333Z" fill="#FF4F19"/>
<path d="M73.0449 2.0614C82.3226 4.62045 90.6657 9.44958 97.4529 15.9124C95.1639 15.635 92.8387 15.4757 90.4753 15.4757C60.5733 15.4757 35.9796 38.3139 33.024 67.5795C33.0233 67.5873 33.0226 67.5953 33.0218 67.603C33.0216 67.6064 33.0214 67.6098 33.0209 67.6132C40.6462 68.9404 49.1493 69.6405 57.7508 69.6405C67.823 69.6405 77.6716 68.6921 86.2325 66.8974C89.6106 66.187 92.7781 65.3484 95.6506 64.4C96.66 64.0637 97.7467 64.6191 98.0795 65.6354C98.4103 66.6498 97.8615 67.7418 96.8501 68.0762C94.9786 68.6938 92.9793 69.2603 90.8957 69.7831C90.8714 69.8032 90.8601 69.8327 90.8346 69.852L87.0674 72.6913L90.9869 73.7775C91.831 74.0119 92.4119 74.7864 92.4006 75.6648C92.3893 76.5453 91.7915 77.3065 90.9417 77.5181C81.2282 79.9589 69.7499 81.2472 57.7508 81.2472C56.9031 81.2472 56.1547 80.6898 55.9086 79.8737C55.6624 79.0576 55.9781 78.1755 56.6831 77.703C57.2999 77.2893 57.2772 76.6754 57.2397 76.4316C57.2022 76.1859 57.0366 75.5928 56.3222 75.3887L45.7856 73.048C45.77 73.0444 45.7587 73.033 45.743 73.0292C41.2583 72.6916 36.8879 72.1862 32.7649 71.4905C32.742 72.1608 32.7264 72.833 32.7264 73.5091C32.7264 86.6163 37.0602 98.6989 44.3556 108.411C48.8249 106.366 53.423 104.29 57.8319 104.462C64.7666 104.769 68.3102 102.802 68.3442 102.781C69.2653 102.265 70.4402 102.583 70.9648 103.503C71.4893 104.425 71.1847 105.596 70.2711 106.13C70.0944 106.236 65.8665 108.681 57.6704 108.327C54.4362 108.162 50.625 109.799 46.8578 111.518C46.8578 111.518 46.8581 111.518 46.8583 111.519C46.8581 111.519 46.8578 111.519 46.8573 111.519C48.0961 112.952 49.4029 114.325 50.7737 115.63C47.6796 115.256 44.6614 114.634 41.7376 113.788C41.7374 113.788 41.7369 113.788 41.7367 113.789C41.7283 113.786 41.7198 113.783 41.7114 113.781C41.2282 113.641 40.7477 113.494 40.2696 113.342C39.9722 113.248 39.6774 113.148 39.3822 113.05C39.2681 113.011 39.1538 112.974 39.0403 112.935C37.7457 112.494 36.4692 112.015 35.2197 111.483C35.2329 111.483 35.2473 111.482 35.2608 111.482C23.3561 106.42 13.4913 97.4645 7.25293 86.2009C17.1119 104.014 36.0291 116.067 57.7508 116.067C89.6447 116.067 115.5 90.0848 115.5 58.0337C115.5 31.3039 97.5157 8.79887 73.0449 2.0614ZM65.4507 56.0993C65.3886 56.1031 65.2871 56.0973 65.2045 56.0973C62.4542 56.0973 60.7605 56.9664 58.8054 57.9694C56.7281 59.0348 54.4309 60.2136 50.895 60.2136C49.9587 60.2136 48.938 60.1304 47.8102 59.9416C46.7613 59.7658 46.0525 58.7683 46.2274 57.7162C46.4004 56.6622 47.3891 55.9385 48.4418 56.1256C52.5832 56.8153 54.653 55.7554 57.0554 54.5236C59.2061 53.4186 61.5651 52.1189 65.4827 52.2303C66.5448 52.2473 67.3927 53.1277 67.3757 54.197C67.3588 55.2529 66.4995 56.0993 65.4507 56.0993ZM80.4388 53.4261C78.7111 55.6364 74.5022 56.0294 73.254 56.0973C73.2182 56.0993 73.1845 56.0993 73.1487 56.0993C72.1335 56.0993 71.2858 55.302 71.2292 54.2705C71.171 53.2051 71.9831 52.2925 73.0433 52.234C74.8893 52.1281 77.0116 51.5463 77.412 51.0344C78.0682 50.1955 79.2768 50.0463 80.1151 50.7094C80.9501 51.3688 81.0966 52.5856 80.4388 53.4261ZM49.4926 80.6671C49.1262 81.0337 48.6259 81.247 48.1259 81.247C47.6259 81.247 47.124 81.0334 46.7592 80.686C46.4115 80.3177 46.2009 79.815 46.2009 79.3125C46.2009 78.81 46.4115 78.3056 46.7592 77.939C47.4717 77.2231 48.7612 77.2231 49.4924 77.939C49.8572 78.3056 50.0506 78.81 50.0506 79.3125C50.0506 79.815 49.8572 80.3177 49.4926 80.6671ZM74.5171 90.3394C74.1506 90.706 73.6504 90.9193 73.1503 90.9193C72.6503 90.9193 72.1484 90.7057 71.7836 90.3583C71.4359 89.99 71.2254 89.4873 71.2254 88.9848C71.2254 88.4823 71.4359 87.9779 71.7836 87.6113C72.4961 86.8953 73.7856 86.8953 74.5168 87.6113C74.8816 87.9779 75.0751 88.4823 75.0751 88.9848C75.0751 89.4873 74.8819 89.99 74.5171 90.3394ZM89.9169 47.7574C89.5504 48.124 89.0501 48.3372 88.5501 48.3372C88.0501 48.3372 87.5482 48.1237 87.1834 47.7763C86.8357 47.408 86.6252 46.9053 86.6252 46.4028C86.6252 45.9003 86.8357 45.3959 87.1834 45.0293C87.8959 44.3133 89.1854 44.3133 89.9166 45.0293C90.2814 45.3959 90.4749 45.9003 90.4749 46.4028C90.4749 46.9053 90.2816 47.408 89.9169 47.7574ZM97.6168 55.5192C97.2503 55.8857 96.75 56.099 96.25 56.099C95.75 56.099 95.2481 55.8855 94.8833 55.538C94.5356 55.1698 94.3251 54.667 94.3251 54.1646C94.3251 53.6621 94.5356 53.1577 94.8833 52.7911C95.5958 52.0751 96.8853 52.0751 97.6165 52.7911C97.9813 53.1577 98.1748 53.6621 98.1748 54.1646C98.1748 54.667 97.9815 55.1698 97.6168 55.5192ZM88.977 31.5633C88.8321 31.5974 88.6895 31.6124 88.5465 31.6124C87.6687 31.6124 86.8754 31.006 86.6723 30.1086C86.4355 29.0676 87.0821 28.0305 88.1199 27.7926C94.0892 26.4211 99.2674 24.7296 103.615 22.784C104.413 23.8306 105.177 24.903 105.904 26.0037C101.187 28.1891 95.5089 30.0641 88.977 31.5633Z" fill="#FF4F19"/>
<path d="M6.56603 84.9244C6.39856 84.6035 6.23445 84.2804 6.07275 83.9562C6.23445 84.2807 6.3988 84.6035 6.56603 84.9244Z" fill="#FF4F19"/>
<path d="M7.20417 86.1141C7.01866 85.7778 6.83723 85.4392 6.6582 85.099C6.83699 85.4392 7.0189 85.7778 7.20417 86.1141Z" fill="#FF4F19"/>
<path d="M0.722664 67.2108C0.688255 66.9937 0.65505 66.776 0.623047 66.5579C0.65505 66.776 0.688255 66.9937 0.722664 67.2108Z" fill="#FF4F19"/>
<path d="M66.3325 0.63855C66.6586 0.687395 66.9829 0.740834 67.307 0.795241C66.9827 0.741076 66.6583 0.687395 66.3325 0.63855Z" fill="#FF4F19"/>
<path d="M67.7109 0.862732C68.0589 0.923667 68.4051 0.988955 68.7509 1.05618C68.4051 0.989197 68.0589 0.923426 67.7109 0.862732Z" fill="#FF4F19"/>
<path d="M0.105953 61.4889C0.0946435 61.2971 0.0816499 61.1061 0.0722656 60.9139C0.0816499 61.1061 0.0948841 61.2971 0.105953 61.4889Z" fill="#FF4F19"/>
<path d="M0.0368631 59.9619C0.0315694 59.8006 0.0238695 59.6398 0.0200195 59.478C0.0238695 59.6396 0.0315694 59.8003 0.0368631 59.9619Z" fill="#FF4F19"/>
<path d="M64.938 0.447083C65.2424 0.485046 65.5451 0.527846 65.848 0.570646C65.5451 0.527846 65.2424 0.485046 64.938 0.447083Z" fill="#FF4F19"/>
<path d="M59.2139 0.0186157C59.3979 0.0232101 59.5808 0.0326405 59.7644 0.0389275C59.5808 0.0326405 59.3979 0.0232101 59.2139 0.0186157Z" fill="#FF4F19"/>
<path d="M60.6646 0.0732422C60.8946 0.0848489 61.1234 0.101292 61.3527 0.115558C61.1234 0.101534 60.8948 0.0848489 60.6646 0.0732422Z" fill="#FF4F19"/>
<path d="M69.0723 1.11792C69.4426 1.19191 69.8112 1.2705 70.1789 1.35175C69.811 1.27074 69.4423 1.19191 69.0723 1.11792Z" fill="#FF4F19"/>
<path d="M70.4155 1.40369C70.8085 1.49219 71.1997 1.58504 71.5895 1.68152C71.1997 1.58528 70.8087 1.49195 70.4155 1.40369Z" fill="#FF4F19"/>
<path d="M71.7412 1.71851C72.1587 1.82297 72.5743 1.93202 72.9881 2.04567C72.5743 1.93226 72.1587 1.82297 71.7412 1.71851Z" fill="#FF4F19"/>
<path d="M0.518561 65.8071C0.489927 65.5929 0.461775 65.3787 0.435547 65.1639C0.462015 65.3787 0.490168 65.5929 0.518561 65.8071Z" fill="#FF4F19"/>
<path d="M0.347662 64.3882C0.324803 64.1781 0.301703 63.9682 0.28125 63.7573C0.301703 63.9682 0.324803 64.1781 0.347662 64.3882Z" fill="#FF4F19"/>
<path d="M0.209717 62.9521C0.192633 62.7482 0.174587 62.5449 0.159668 62.3406C0.174587 62.5449 0.192874 62.7485 0.209717 62.9521Z" fill="#FF4F19"/>
<path d="M62.1035 0.163452C62.3617 0.182797 62.6187 0.207219 62.8759 0.230191C62.6187 0.207219 62.3617 0.182797 62.1035 0.163452Z" fill="#FF4F19"/>
<path d="M1.86172 72.6937C1.80181 72.4626 1.74574 72.2299 1.68848 71.9976C1.74574 72.2299 1.80181 72.4626 1.86172 72.6937Z" fill="#FF4F19"/>
<path d="M3.81604 78.8088C3.69428 78.4901 3.57325 78.171 3.45703 77.8496C3.57325 78.171 3.69428 78.4899 3.81604 78.8088Z" fill="#FF4F19"/>
<path d="M2.22533 74.0324C2.15555 73.7879 2.09058 73.5413 2.02393 73.2956C2.09058 73.5415 2.15579 73.7879 2.22533 74.0324Z" fill="#FF4F19"/>
<path d="M1.52903 71.3415C1.47633 71.1164 1.427 70.8901 1.37695 70.664C1.427 70.8901 1.47657 71.1164 1.52903 71.3415Z" fill="#FF4F19"/>
<path d="M3.39627 77.6755C3.0221 76.6304 2.6785 75.571 2.36328 74.4991C2.6785 75.5708 3.02234 76.6304 3.39627 77.6755Z" fill="#FF4F19"/>
<path d="M1.22875 69.978C1.18255 69.7558 1.13852 69.5326 1.09473 69.3096C1.13852 69.5328 1.18231 69.7558 1.22875 69.978Z" fill="#FF4F19"/>
<path d="M0.959482 68.6007C0.919298 68.3814 0.880799 68.1613 0.843262 67.941C0.881039 68.1613 0.919539 68.3811 0.959482 68.6007Z" fill="#FF4F19"/>
<path d="M63.5283 0.288269C63.8103 0.31656 64.0909 0.349688 64.3719 0.381848C64.0909 0.349688 63.8103 0.31656 63.5283 0.288269Z" fill="#FF4F19"/>
<path d="M35.2603 111.482C35.247 111.482 35.2324 111.483 35.2191 111.483C36.4687 112.015 37.7454 112.494 39.0397 112.935C39.1533 112.974 39.2678 113.011 39.3816 113.05C39.6769 113.148 39.9716 113.248 40.2691 113.342C40.7469 113.494 41.2274 113.641 41.7109 113.781C41.7193 113.783 41.7277 113.786 41.7361 113.789C41.7364 113.789 41.7368 113.788 41.7371 113.788C44.6606 114.634 47.679 115.256 50.7732 115.631C49.4023 114.325 48.0955 112.952 46.8568 111.519C46.5055 111.679 46.1539 111.84 45.8041 112C44.4265 112.63 43.073 113.247 41.7575 113.78C41.5739 113.727 41.3901 113.674 41.207 113.619C40.5576 113.425 39.9151 113.216 39.2748 113.001C38.8626 112.861 38.4473 112.727 38.0392 112.578C37.5916 112.417 37.1535 112.235 36.7112 112.062C36.2266 111.872 35.7405 111.684 35.2624 111.481C37.4935 111.536 40.8959 109.994 44.208 108.479C44.261 108.455 44.3141 108.43 44.3673 108.406C45.1662 109.47 45.9891 110.514 46.8573 111.518C50.6245 109.799 54.4357 108.162 57.6699 108.328C65.8662 108.681 70.0939 106.237 70.2705 106.131C71.1841 105.596 71.4888 104.425 70.9642 103.503C70.4397 102.583 69.2647 102.266 68.3436 102.781C68.3097 102.802 64.7663 104.769 57.8313 104.463C53.4224 104.291 48.8244 106.366 44.355 108.412C37.0599 98.6992 32.726 86.6165 32.726 73.5094C32.726 72.8333 32.7417 72.1613 32.7645 71.4908C36.8878 72.1867 41.258 72.6921 45.7427 73.0294C45.7584 73.0333 45.7694 73.0446 45.7853 73.0483L56.3219 75.389C57.0363 75.593 57.2016 76.1862 57.2394 76.4319C57.2769 76.6756 57.2995 77.2896 56.6828 77.7033C55.9778 78.1755 55.6621 79.0579 55.9083 79.874C56.1544 80.6901 56.9028 81.2472 57.7507 81.2472C69.7498 81.2472 81.2282 79.9589 90.9414 77.5181C91.791 77.3065 92.3889 76.5453 92.4003 75.6649C92.4116 74.7864 91.8307 74.0119 90.9866 73.7775L87.0671 72.6914L90.8343 69.8521C90.8598 69.8327 90.8711 69.8035 90.8954 69.7831C92.9787 69.2604 94.9783 68.6938 96.8498 68.0762C97.8612 67.7418 98.41 66.65 98.0792 65.6354C97.7464 64.6191 96.66 64.0637 95.6503 64.4C92.7778 65.3484 89.6102 66.1872 86.2322 66.8974C77.6715 68.6921 67.8229 69.6405 57.7507 69.6405C49.1492 69.6405 40.6461 68.9404 33.0208 67.6132C33.021 67.6098 33.0213 67.6064 33.0218 67.603C32.8933 68.8827 32.8218 70.1785 32.7771 71.4814C31.9945 71.3493 31.2053 71.2221 30.4418 71.0761C29.3966 70.8759 28.7105 69.8632 28.9098 68.8147C29.1071 67.7643 30.1148 67.0766 31.1601 67.2751C31.7623 67.3904 32.4096 67.4724 33.0237 67.5795C35.9795 38.3139 60.5732 15.4757 90.4753 15.4757C92.8387 15.4757 95.1638 15.635 97.4528 15.9124C90.6654 9.44958 82.3225 4.62045 73.0449 2.06141C73.0259 2.05609 73.0069 2.05101 72.9878 2.04593C72.5742 1.93228 72.1584 1.82323 71.7409 1.71877C71.6909 1.70619 71.6404 1.6941 71.5901 1.68177C71.2003 1.58529 70.809 1.49243 70.4161 1.40393C70.3372 1.38604 70.2578 1.36935 70.1788 1.35194C69.8112 1.2707 69.4425 1.19235 69.0722 1.11812C68.9654 1.09684 68.8581 1.07701 68.7512 1.05621C68.4054 0.988991 68.0592 0.923703 67.7113 0.862768C67.577 0.839313 67.4418 0.818034 67.3072 0.795546C66.9831 0.741139 66.6585 0.6877 66.3327 0.638855C66.1717 0.614674 66.0098 0.593637 65.8484 0.570665C65.5454 0.527865 65.2427 0.485065 64.9383 0.447102C64.7502 0.423646 64.5605 0.403818 64.3719 0.382055C64.0911 0.349653 63.8105 0.316526 63.5283 0.288476C63.3115 0.266713 63.0935 0.249545 62.8762 0.2302C62.619 0.207471 62.362 0.183048 62.1038 0.163462C61.8545 0.144843 61.6035 0.131059 61.3533 0.115584C61.124 0.101317 60.8952 0.0846325 60.6651 0.0732676C60.3658 0.0582755 60.065 0.0493287 59.7645 0.038931C59.5809 0.032644 59.398 0.0232135 59.2139 0.0186192C58.7274 0.00652879 58.2399 0 57.7507 0C32.482 0 11.0073 16.3106 3.1743 39.0253C3.28571 38.6974 3.40025 38.3709 3.51863 38.0464C3.56098 38.0844 3.6144 38.1008 3.6541 38.1432C6.73334 41.4491 12.3372 44.5094 19.8585 46.9918C20.8699 47.3263 21.4187 48.418 21.0879 49.4326C20.821 50.2487 20.0691 50.7645 19.2587 50.7645C19.0594 50.7645 18.8583 50.7343 18.659 50.6683C11.4926 48.3039 5.8647 45.3698 2.21735 42.1223C2.50995 41.0893 2.82131 40.0645 3.1642 39.0543C1.11675 45.0015 0.00146484 51.3864 0.00146484 58.0337C0.00146484 58.5166 0.00796163 58.9978 0.0197521 59.478C0.0236021 59.6398 0.0315426 59.8006 0.0365956 59.9619C0.0469424 60.2796 0.0572891 60.5974 0.0726889 60.9139C0.0820732 61.1061 0.0950667 61.2972 0.106376 61.4889C0.122979 61.7733 0.139341 62.0574 0.160035 62.3406C0.174953 62.5449 0.193 62.7482 0.210084 62.9521C0.232702 63.221 0.25508 63.4896 0.281308 63.7573C0.301761 63.9682 0.324861 64.178 0.34772 64.3882C0.375872 64.6471 0.404506 64.9059 0.436028 65.1639C0.462256 65.3789 0.490408 65.5931 0.519042 65.8071C0.552489 66.0579 0.586898 66.3081 0.623472 66.5579C0.655475 66.776 0.688681 66.9937 0.72309 67.2108C0.761589 67.4548 0.801773 67.698 0.843401 67.941C0.881178 68.1613 0.919437 68.3814 0.959621 68.6007C1.00293 68.8377 1.04865 69.0737 1.09485 69.3097C1.13864 69.5329 1.18244 69.7558 1.22888 69.978C1.27652 70.2073 1.32705 70.4358 1.37758 70.664C1.42763 70.8901 1.47696 71.1165 1.52965 71.3416C1.58091 71.5609 1.63529 71.7793 1.68895 71.9976C1.74597 72.23 1.80228 72.4626 1.86219 72.6938C1.91441 72.8952 1.96999 73.0952 2.02437 73.2956C2.09102 73.5415 2.15599 73.7879 2.22577 74.0324C2.27029 74.1886 2.31817 74.3434 2.36389 74.4989C2.6791 75.5708 3.02271 76.6304 3.39688 77.6752C3.41757 77.733 3.43706 77.7915 3.458 77.8493C3.57422 78.1707 3.69525 78.4899 3.81701 78.8086C3.8555 78.9097 3.8928 79.0115 3.93178 79.1121C4.05161 79.4206 4.17577 79.7272 4.30066 80.0331C4.34469 80.1407 4.38752 80.2488 4.43203 80.3562C4.55908 80.6623 4.68998 80.9662 4.82208 81.2695C4.86708 81.3727 4.91135 81.4764 4.95707 81.5797C5.0935 81.8878 5.23307 82.1941 5.37455 82.4995C5.4181 82.5934 5.46117 82.6872 5.50521 82.7808C5.65295 83.0949 5.80358 83.4075 5.95661 83.7185C5.9956 83.7976 6.03458 83.8769 6.07404 83.9557C6.2355 84.2802 6.39984 84.603 6.56731 84.9239C6.59763 84.9822 6.62843 85.0402 6.65899 85.0985C6.83801 85.4387 7.01968 85.7775 7.20496 86.1136C7.22108 86.1426 7.2372 86.1714 7.25333 86.2004C13.491 97.4647 23.3557 106.42 35.2603 111.482ZM40.9842 17.9711C41.6967 17.2551 42.9862 17.2551 43.7174 17.9711C44.0822 18.3377 44.2756 18.8421 44.2756 19.3446C44.2756 19.8471 44.0819 20.3495 43.7174 20.6992C43.3509 21.0655 42.8509 21.279 42.3509 21.279C41.8509 21.279 41.349 21.0655 40.9842 20.718C40.6365 20.3495 40.4259 19.8471 40.4259 19.3446C40.4259 18.8421 40.6365 18.3377 40.9842 17.9711ZM25.2271 25.6383C26.7179 23.2839 29.3809 22.3053 31.1747 23.4524C32.9686 24.5995 33.2143 27.4381 31.7234 29.7926C30.2325 32.1471 27.5697 33.1257 25.7757 31.9785C23.9816 30.8314 23.7362 27.9928 25.2271 25.6383ZM13.3885 66.453C12.9115 64.2356 13.8945 62.1406 15.5839 61.7735C17.2733 61.4065 19.0296 62.9066 19.5065 65.124C19.9834 67.3414 19.0005 69.4364 17.3111 69.8035C15.6217 70.1703 13.8654 68.6701 13.3885 66.453Z" fill="#DB3F3D"/>
<path d="M65.4825 52.2303C61.5649 52.1189 59.2056 53.4186 57.0552 54.5236C54.6528 55.7554 52.583 56.8152 48.4416 56.1256C47.3889 55.9387 46.4002 56.6622 46.2272 57.7162C46.0523 58.7686 46.7611 59.766 47.81 59.9416C48.9381 60.1304 49.9588 60.2136 50.8948 60.2136C54.4307 60.2136 56.7279 59.0348 58.8052 57.9694C60.7603 56.9664 62.454 56.0973 65.2043 56.0973C65.2871 56.0973 65.3886 56.1029 65.4505 56.0993C66.4993 56.0993 67.3586 55.2529 67.3755 54.197C67.3923 53.1277 66.5446 52.2473 65.4825 52.2303Z" fill="#DB3F3D"/>
<path d="M80.1154 50.7097C79.2771 50.0466 78.0682 50.1958 77.4123 51.0347C77.0119 51.5466 74.8896 52.1283 73.0436 52.2343C71.9834 52.2928 71.1713 53.2054 71.2295 54.2708C71.2858 55.3023 72.1338 56.0995 73.149 56.0995C73.1846 56.0995 73.2185 56.0995 73.2543 56.0976C74.5024 56.0297 78.7117 55.6367 80.4391 53.4264C81.0967 52.5856 80.9502 51.3688 80.1154 50.7097Z" fill="#DB3F3D"/>
<path d="M25.2253 25.6386C23.7343 27.9931 23.9799 30.8319 25.7738 31.9791C27.5678 33.1263 30.2307 32.1476 31.7217 29.793C33.2127 27.4385 32.9671 24.5998 31.1732 23.4526C29.3793 22.3053 26.7163 23.2841 25.2253 25.6386Z" fill="#A03939"/>
<path d="M17.3115 69.8011C19.0009 69.4341 19.9837 67.3391 19.5067 65.1218C19.0297 62.9046 17.2735 61.4046 15.5842 61.7716C13.8949 62.1386 12.9121 64.2336 13.3891 66.4509C13.8661 68.6682 15.6222 70.1681 17.3115 69.8011Z" fill="#A03939"/>
<path d="M42.3512 21.279C42.8513 21.279 43.3513 21.0655 43.718 20.6991C44.0825 20.3495 44.2762 19.847 44.2762 19.3445C44.2762 18.8421 44.0825 18.3377 43.718 17.9711C42.9867 17.2551 41.6972 17.2551 40.9848 17.9711C40.6368 18.3377 40.4263 18.8421 40.4263 19.3445C40.4263 19.847 40.6368 20.3495 40.9845 20.718C41.3493 21.0655 41.8512 21.279 42.3512 21.279Z" fill="#A03939"/>
<path d="M87.1837 45.0296C86.836 45.3962 86.6255 45.9006 86.6255 46.4031C86.6255 46.9056 86.836 47.408 87.1837 47.7765C87.5485 48.1243 88.0505 48.3375 88.5505 48.3375C89.0505 48.3375 89.5505 48.124 89.9172 47.7577C90.282 47.4083 90.4754 46.9058 90.4754 46.4031C90.4754 45.9004 90.2817 45.3962 89.9172 45.0296C89.1857 44.3136 87.8962 44.3136 87.1837 45.0296Z" fill="#DB3F3D"/>
<path d="M94.8834 52.7913C94.5357 53.1579 94.3252 53.6623 94.3252 54.1648C94.3252 54.6673 94.5357 55.1697 94.8834 55.5382C95.2482 55.886 95.7502 56.0992 96.2502 56.0992C96.7502 56.0992 97.2502 55.8857 97.6169 55.5194C97.9817 55.17 98.1751 54.6675 98.1751 54.1648C98.1751 53.6621 97.9814 53.1579 97.6169 52.7913C96.8854 52.0753 95.5959 52.0753 94.8834 52.7913Z" fill="#DB3F3D"/>
<path d="M46.7589 77.9393C46.4112 78.3059 46.2007 78.8103 46.2007 79.3127C46.2007 79.8152 46.4112 80.3177 46.7589 80.6862C47.1237 81.0339 47.6256 81.2472 48.1257 81.2472C48.6257 81.2472 49.1257 81.0337 49.4924 80.6673C49.8572 80.3179 50.0506 79.8155 50.0506 79.3127C50.0506 78.81 49.8569 78.3059 49.4924 77.9393C48.7611 77.2233 47.4714 77.2233 46.7589 77.9393Z" fill="#DB3F3D"/>
<path d="M71.7838 87.6116C71.4361 87.9782 71.2256 88.4826 71.2256 88.985C71.2256 89.4875 71.4361 89.99 71.7838 90.3585C72.1486 90.7062 72.6505 90.9195 73.1506 90.9195C73.6506 90.9195 74.1506 90.706 74.5173 90.3396C74.8821 89.9902 75.0755 89.4878 75.0755 88.985C75.0755 88.4823 74.8818 87.9782 74.5173 87.6116C73.7858 86.8956 72.4963 86.8956 71.7838 87.6116Z" fill="#DB3F3D"/>
<path d="M28.9099 68.8149C28.7107 69.8634 29.3967 70.8758 30.4419 71.0763C31.2054 71.2224 31.9947 71.3496 32.7772 71.4816C32.8217 70.1787 32.8932 68.8829 33.0219 67.6032C33.0226 67.5955 33.0231 67.5875 33.0241 67.5798C32.41 67.4727 31.7625 67.3907 31.1604 67.2753C30.1147 67.0768 29.1072 67.7645 28.9099 68.8149Z" fill="#A03939"/>
<path d="M18.659 50.6681C18.8582 50.7341 19.0594 50.7643 19.2586 50.7643C20.0688 50.7643 20.8207 50.2485 21.0878 49.4324C21.4187 48.418 20.8698 47.326 19.8585 46.9916C12.3371 44.5092 6.73328 41.4489 3.65404 38.1429C3.61458 38.1006 3.56092 38.0842 3.51857 38.0462C3.40018 38.3707 3.28565 38.6971 3.17424 39.025C3.17087 39.0347 3.1675 39.0441 3.16413 39.0538C2.82125 40.0641 2.50988 41.0891 2.21729 42.1219C5.86463 45.3696 11.4925 48.3037 18.659 50.6681Z" fill="#A03939"/>
<path d="M44.3676 108.406C44.3147 108.43 44.2612 108.455 44.2083 108.479C40.8961 109.994 37.494 111.536 35.2627 111.481C35.7408 111.684 36.2269 111.872 36.7115 112.062C37.1537 112.235 37.5919 112.416 38.0395 112.578C38.4476 112.727 38.8626 112.861 39.2751 113.001C39.9154 113.216 40.5578 113.425 41.2073 113.619C41.3901 113.674 41.574 113.727 41.7578 113.78C43.0733 113.247 44.4268 112.63 45.8043 112C46.1542 111.84 46.5058 111.679 46.8571 111.519C46.8573 111.519 46.8575 111.519 46.858 111.519C46.8578 111.518 46.8578 111.518 46.8578 111.518C45.9896 110.514 45.1665 109.47 44.3676 108.406Z" fill="#A03939"/>
<path d="M103.615 22.7841C99.2675 24.7299 94.0893 26.4211 88.12 27.7926C87.0822 28.0305 86.4356 29.0677 86.6724 30.1086C86.8755 31.006 87.6688 31.6124 88.5466 31.6124C88.6895 31.6124 88.8325 31.5972 88.9771 31.5634C95.509 30.0642 101.187 28.1892 105.904 26.0037C105.177 24.903 104.413 23.8306 103.615 22.7841Z" fill="#DB3F3D"/>
</g>
<defs>
<clipPath id="clip0">
<rect width="115.498" height="116.067" fill="white" transform="translate(0.00146484)"/>
</clipPath>
</defs>
</svg>
