<svg width="75" height="74" viewBox="0 0 75 74" fill="none" xmlns="http://www.w3.org/2000/svg">
<g clip-path="url(#clip0)">
<path d="M72.5499 1.5365C72.5499 1.5365 72.2733 9.25306 69.0665 18.3257L55.7607 5.01992C64.8334 1.81317 72.5499 1.5365 72.5499 1.5365Z" fill="#9FA628"/>
<path d="M55.7608 5.0199L69.0665 18.3257C66.9822 24.2289 63.6551 30.7054 58.3597 36.0008C53.4799 40.8806 47.6094 44.7868 41.4716 47.4946L26.5918 32.6149C28.4037 28.5079 30.9325 24.1256 34.274 19.9757C35.4437 18.5235 36.7123 17.1 38.0856 15.7267C43.381 10.4314 49.8576 7.10421 55.7608 5.0199Z" fill="white"/>
<path d="M56.3312 17.7552C58.5703 19.9944 58.5703 23.6254 56.3312 25.8646C54.092 28.1037 50.4624 28.1037 48.2218 25.8646C45.9827 23.624 45.9827 19.9944 48.2218 17.7552C50.461 15.5161 54.092 15.5161 56.3312 17.7552Z" fill="#7BD8E8"/>
<path d="M54.304 40.0548C61.6923 51.1373 47.8619 58.3005 40.1138 58.3005C44.1677 54.2465 42.9837 49.0071 42.9837 49.0071L41.4713 47.4947C45.5783 45.6828 49.9605 43.1541 54.1105 39.8126L54.304 40.0548Z" fill="#9FA628"/>
<path d="M24.9255 43.114L24.6932 42.8817C24.008 42.1951 23.6712 41.2003 23.912 40.2599C24.5098 37.9319 25.3928 35.3343 26.5912 32.615L41.471 47.4948C38.7516 48.6932 36.1541 49.5762 33.8261 50.174C32.8857 50.4148 31.8909 50.0779 31.2042 49.3927L30.972 49.1605L24.9255 43.114Z" fill="#9FA628"/>
<path d="M34.0313 19.7822L34.2736 19.9757C30.9321 24.1257 28.4034 28.5079 26.5914 32.6149L25.0791 31.1026C25.0791 31.1026 19.8396 29.9185 15.7856 33.9725C15.7856 26.2244 22.9489 12.3939 34.0313 19.7822Z" fill="#9FA628"/>
<path d="M24.9257 43.1139L30.9722 49.1604C30.5378 50.8792 29.5072 52.6883 27.9489 54.2465C24.5902 57.6052 15.7856 58.3004 15.7856 58.3004C15.7856 58.3004 16.4809 49.4959 19.8396 46.1372C21.3978 44.5789 23.2069 43.5482 24.9257 43.1139Z" fill="#FF4F19"/>
<path d="M39.1362 37.0143C39.6953 36.4538 39.6953 35.5464 39.1362 34.9873C38.5757 34.4268 37.6683 34.4268 37.1078 34.9873C36.5487 35.5464 36.5487 36.4538 37.1078 37.0143C37.6683 37.5734 38.5757 37.5734 39.1362 37.0143Z" fill="black"/>
<path d="M57.3805 26.8782C60.1813 24.0774 60.1819 19.5428 57.3805 16.7416C54.5794 13.9407 50.045 13.9405 47.2438 16.7416C44.45 19.5354 44.4499 24.0825 47.2442 26.8785C50.0389 29.6715 54.586 29.6727 57.3805 26.8782ZM49.2712 18.7689C50.9517 17.0884 53.6724 17.0881 55.3532 18.7689C57.0337 20.4492 57.034 23.1702 55.3532 24.8508C53.677 26.5272 50.9485 26.5272 49.2714 24.8511C47.595 23.1736 47.5948 20.4451 49.2712 18.7689Z" fill="black"/>
<path d="M15.273 35.2967C15.4504 35.3702 15.6367 35.4059 15.8213 35.4059C16.1945 35.4059 16.561 35.2601 16.8353 34.9861C19.7142 32.1071 23.2651 32.2872 24.4251 32.4397L24.9271 32.9417C23.9391 35.2927 23.1433 37.6304 22.5595 39.9041C22.3488 40.727 22.4199 41.5977 22.7331 42.3941C21.353 43.0302 20.0214 43.9641 18.862 45.1235C15.172 48.8136 14.4227 57.8066 14.3926 58.1876C14.3596 58.6058 14.5113 59.0175 14.8079 59.3141C15.0778 59.5839 15.4429 59.7339 15.8213 59.7339C15.8589 59.7339 15.8966 59.7325 15.9343 59.7295C16.3153 59.6995 25.3086 58.9502 28.9986 55.2603C30.1575 54.1013 31.0913 52.7698 31.7274 51.3899C32.5706 51.7215 33.4384 51.7624 34.2188 51.5624C36.4915 50.9788 38.829 50.1832 41.1802 49.1951L41.6822 49.6971C41.8346 50.8572 42.0146 54.4082 39.1359 57.2868C38.726 57.6968 38.6033 58.3133 38.8252 58.8489C39.047 59.3846 39.5696 59.7338 40.1495 59.7338C45.8233 59.7338 53.7556 56.3549 56.6771 50.896C57.9459 48.5254 58.8097 44.775 56.0548 40.0948C57.2227 39.1077 58.3476 38.0755 59.4086 37.0145C64.1421 32.281 67.858 26.1538 70.4535 18.8034C73.6961 9.62922 74.0062 1.9118 74.0178 1.58783C74.0321 1.19003 73.8803 0.804272 73.5989 0.522732C73.3174 0.241335 72.9332 0.0888099 72.5338 0.103862C72.2097 0.115473 64.4924 0.425684 55.3187 3.66813C47.9677 6.26363 41.8405 9.97971 37.1072 14.7131C36.0465 15.7738 35.0144 16.8985 34.0269 18.067C29.3468 15.3121 25.5964 16.1759 23.2255 17.4447C17.7666 20.3662 14.3877 28.2986 14.3877 33.9724C14.3881 34.5521 14.7375 35.0749 15.273 35.2967ZM26.9713 53.2329C25.0002 55.2039 20.3764 56.2435 17.454 56.668C17.8786 53.7453 18.9183 49.1217 20.8892 47.1508C21.993 46.047 23.2728 45.2101 24.5593 44.7388L29.3833 49.5628C28.912 50.8492 28.0752 52.1291 26.9713 53.2329ZM33.5066 48.7851C33.0918 48.8913 32.6113 48.7354 32.254 48.3787C25.2957 41.4205 34.228 50.3528 25.7442 41.8689C25.3867 41.5107 25.2307 41.0303 25.3367 40.6161C25.7958 38.828 26.3963 36.9934 27.1265 35.1412L38.9809 46.9955C37.1284 47.7259 35.2941 48.3263 33.5066 48.7851ZM54.1497 49.5432C52.2715 53.0522 47.5427 55.6388 43.2333 56.5292C44.6073 53.9436 44.9102 50.6521 44.4082 48.6562C44.2916 48.1926 43.9891 47.9596 43.9722 47.9322C47.446 46.2497 50.7358 44.2312 53.7897 41.9093C55.2816 44.635 55.4044 47.1985 54.1497 49.5432ZM68.4728 15.6689L58.4532 5.64923C63.9121 3.95368 68.6612 3.31878 71.0316 3.09057C70.8033 5.46144 70.1682 10.2105 68.4728 15.6689ZM39.135 16.7404C43.3818 12.4935 48.8626 9.11358 55.4298 6.68064L67.4414 18.6923C65.0088 25.2593 61.6289 30.7402 57.3817 34.9872C56.0899 36.2788 54.699 37.5267 53.2474 38.696C49.758 41.5056 45.9173 43.8855 41.8198 45.7801L28.342 32.3025C30.2365 28.2047 32.6164 24.3641 35.4258 20.8751C36.5961 19.4225 37.8439 18.0314 39.135 16.7404ZM24.5789 19.9724C26.924 18.7175 29.4872 18.8405 32.2126 20.3323C29.8908 23.386 27.8722 26.6759 26.1897 30.15C26.1684 30.1368 25.9104 29.8124 25.431 29.7043C25.2339 29.6597 21.441 28.8439 17.5927 30.8891C18.4832 26.5795 21.0697 21.8506 24.5789 19.9724Z" fill="black"/>
<path d="M31.0274 65.3963L35.0814 61.3409C35.641 60.781 35.6409 59.8733 35.0811 59.3136C34.521 58.7538 33.6133 58.7541 33.0537 59.3139L28.9997 63.3693C28.4401 63.9292 28.4402 64.8369 29 65.3966C29.5601 65.9562 30.4678 65.9562 31.0274 65.3963Z" fill="black"/>
<path d="M10.7526 45.1225L14.8079 41.0686C15.3679 40.5089 15.368 39.6012 14.8084 39.0413C14.2487 38.4814 13.3412 38.4814 12.7811 39.041L8.72572 43.095C8.16579 43.6546 8.16565 44.5623 8.72529 45.1222C9.28478 45.6819 10.1923 45.6825 10.7526 45.1225Z" fill="black"/>
<path d="M22.9176 61.342L13.2071 71.0511C12.6471 71.6109 12.6471 72.5186 13.2069 73.0784C13.7664 73.6382 14.6743 73.6385 15.2342 73.0785L24.9448 63.3694C25.5047 62.8096 25.5047 61.9019 24.9449 61.3422C24.3854 60.7824 23.4776 60.7824 22.9176 61.342Z" fill="black"/>
<path d="M11.4494 61.342L1.73881 71.0511C1.17888 71.6109 1.17888 72.5186 1.73867 73.0784C2.29816 73.6382 3.206 73.6385 3.76593 73.0786L13.4765 63.3694C14.0364 62.8096 14.0364 61.9019 13.4766 61.3422C12.917 60.7824 12.0092 60.7824 11.4494 61.342Z" fill="black"/>
<path d="M3.07076 60.9151L12.7799 51.2046C13.3397 50.6446 13.3397 49.7371 12.7797 49.1772C12.2201 48.6175 11.3123 48.6175 10.7525 49.1773L1.04335 58.8879C0.483571 59.4478 0.483571 60.3553 1.0435 60.9153C1.60328 61.475 2.51098 61.475 3.07076 60.9151Z" fill="black"/>
<path d="M43.1904 32.9591L45.2174 30.9321C45.7772 30.3723 45.7772 29.4646 45.2174 28.9047C44.6575 28.3449 43.75 28.3449 43.19 28.9047L41.163 30.9317C40.6032 31.4915 40.6032 32.3992 41.163 32.9591C41.7229 33.5189 42.6305 33.5189 43.1904 32.9591Z" fill="black"/>
</g>
<defs>
<clipPath id="clip0">
<rect width="73.3956" height="73.3956" fill="white" transform="translate(0.623535 0.102844)"/>
</clipPath>
</defs>
</svg>
