<svg viewBox="0 0 155 60" fill="none" xmlns="http://www.w3.org/2000/svg">
<g clip-path="url(#clip0)">
<path d="M70.4545 66.96V28.1937C70.4545 22.2466 68.9398 17.4272 66.0511 13.903L70.7099 9.24224C72.2265 10.1529 73.9703 10.6143 75.7386 10.5726C76.2058 10.5726 76.6538 10.387 76.9841 10.0565C77.3144 9.72606 77.5 9.27787 77.5 8.81053C77.5 8.34319 77.3144 7.89499 76.9841 7.56453C76.6538 7.23407 76.2058 7.04842 75.7386 7.04842C72.3832 7.04842 70.4545 5.11892 70.4545 1.76211C70.4545 1.29477 70.269 0.846568 69.9387 0.516109C69.6083 0.18565 69.1603 0 68.6932 0C68.226 0 67.778 0.18565 67.4477 0.516109C67.1174 0.846568 66.9318 1.29477 66.9318 1.76211C66.8985 3.51627 67.3594 5.24439 68.2617 6.74886L63.6028 11.4537C60.0801 8.56383 55.2628 7.04842 49.3182 7.04842H28.1818C22.2372 7.04842 17.4199 8.56383 13.8972 11.4537L9.23835 6.74886C10.1406 5.24439 10.6015 3.51627 10.5682 1.76211C10.5682 1.29477 10.3826 0.846568 10.0523 0.516109C9.72197 0.18565 9.27396 0 8.80682 0C8.33968 0 7.89167 0.18565 7.56135 0.516109C7.23103 0.846568 7.04545 1.29477 7.04545 1.76211C7.04545 5.11892 5.11676 7.04842 1.76136 7.04842C1.29422 7.04842 0.846212 7.23407 0.515892 7.56453C0.185572 7.89499 0 8.34319 0 8.81053C0 9.27787 0.185572 9.72606 0.515892 10.0565C0.846212 10.387 1.29422 10.5726 1.76136 10.5726C3.51479 10.6059 5.24219 10.1449 6.74602 9.24224L11.4489 13.903C8.56023 17.4272 7.04545 22.2466 7.04545 28.1937V66.96H70.4545ZM49.3182 35.2421C51.06 35.2421 52.7627 35.7588 54.211 36.7269C55.6593 37.6951 56.7881 39.0711 57.4546 40.681C58.1212 42.2909 58.2956 44.0624 57.9558 45.7715C57.616 47.4806 56.7772 49.0504 55.5455 50.2826C54.3139 51.5148 52.7447 52.3539 51.0363 52.6939C49.328 53.0338 47.5572 52.8593 45.948 52.1925C44.3387 51.5257 42.9633 50.3964 41.9956 48.9475C41.0279 47.4986 40.5114 45.7952 40.5114 44.0526C40.5114 41.7159 41.4392 39.4749 43.0908 37.8226C44.7424 36.1704 46.9825 35.2421 49.3182 35.2421ZM28.1818 35.2421C29.9236 35.2421 31.6264 35.7588 33.0746 36.7269C34.5229 37.6951 35.6517 39.0711 36.3183 40.681C36.9848 42.2909 37.1592 44.0624 36.8194 45.7715C36.4796 47.4806 35.6408 49.0504 34.4092 50.2826C33.1775 51.5148 31.6083 52.3539 29.8999 52.6939C28.1916 53.0338 26.4208 52.8593 24.8116 52.1925C23.2024 51.5257 21.8269 50.3964 20.8592 48.9475C19.8915 47.4986 19.375 45.7952 19.375 44.0526C19.375 41.7159 20.3029 39.4749 21.9545 37.8226C23.6061 36.1704 25.8461 35.2421 28.1818 35.2421Z" fill="white"/>
<path d="M28.182 49.3389C29.2271 49.3389 30.2488 49.0289 31.1177 48.448C31.9867 47.8672 32.664 47.0416 33.0639 46.0756C33.4638 45.1097 33.5685 44.0468 33.3646 43.0213C33.1607 41.9959 32.6575 41.0539 31.9185 40.3146C31.1795 39.5753 30.2379 39.0718 29.2129 38.8679C28.1879 38.6639 27.1254 38.7686 26.1599 39.1687C25.1944 39.5688 24.3691 40.2464 23.7885 41.1157C23.2079 41.985 22.8979 43.0071 22.8979 44.0526C22.8979 45.4546 23.4547 46.7992 24.4456 47.7906C25.4366 48.782 26.7806 49.3389 28.182 49.3389ZM28.182 40.5284C28.8788 40.5284 29.5599 40.7351 30.1392 41.1223C30.7185 41.5096 31.17 42.06 31.4366 42.704C31.7032 43.3479 31.773 44.0565 31.6371 44.7402C31.5012 45.4238 31.1656 46.0517 30.673 46.5446C30.1803 47.0375 29.5526 47.3731 28.8693 47.5091C28.1859 47.6451 27.4776 47.5753 26.834 47.3086C26.1903 47.0418 25.6401 46.5901 25.253 46.0106C24.8659 45.431 24.6593 44.7496 24.6593 44.0526C24.6593 43.1179 25.0305 42.2215 25.6911 41.5606C26.3517 40.8997 27.2478 40.5284 28.182 40.5284Z" fill="white"/>
<path d="M49.3183 49.3389C50.3634 49.3389 51.385 49.0289 52.254 48.448C53.1229 47.8672 53.8002 47.0416 54.2001 46.0756C54.6001 45.1097 54.7047 44.0468 54.5008 43.0213C54.2969 41.9959 53.7937 41.0539 53.0547 40.3146C52.3157 39.5753 51.3742 39.0718 50.3491 38.8679C49.3241 38.6639 48.2617 38.7686 47.2961 39.1687C46.3306 39.5688 45.5053 40.2464 44.9247 41.1157C44.3441 41.985 44.0342 43.0071 44.0342 44.0526C44.0342 45.4546 44.5909 46.7992 45.5819 47.7906C46.5728 48.782 47.9168 49.3389 49.3183 49.3389ZM49.3183 40.5284C50.015 40.5284 50.6961 40.7351 51.2754 41.1223C51.8547 41.5096 52.3062 42.06 52.5729 42.704C52.8395 43.3479 52.9092 44.0565 52.7733 44.7402C52.6374 45.4238 52.3019 46.0517 51.8092 46.5446C51.3166 47.0375 50.6889 47.3731 50.0055 47.5091C49.3222 47.6451 48.6139 47.5753 47.9702 47.3086C47.3265 47.0418 46.7763 46.5901 46.3892 46.0106C46.0021 45.431 45.7955 44.7496 45.7955 44.0526C45.7955 43.1179 46.1667 42.2215 46.8273 41.5606C47.488 40.8997 48.384 40.5284 49.3183 40.5284Z" fill="white"/>
<path d="M126.818 49.3389C127.863 49.3389 128.885 49.0289 129.754 48.448C130.623 47.8672 131.3 47.0415 131.7 46.0756C132.1 45.1097 132.205 44.0467 132.001 43.0213C131.797 41.9959 131.294 41.0539 130.555 40.3146C129.816 39.5753 128.874 39.0718 127.849 38.8679C126.824 38.6639 125.762 38.7686 124.796 39.1687C123.831 39.5688 123.005 40.2464 122.425 41.1157C121.844 41.985 121.534 43.0071 121.534 44.0526C121.534 45.4546 122.091 46.7992 123.082 47.7906C124.073 48.782 125.417 49.3389 126.818 49.3389ZM126.818 40.5284C127.515 40.5284 128.196 40.7351 128.775 41.1223C129.355 41.5096 129.806 42.06 130.073 42.704C130.339 43.3479 130.409 44.0565 130.273 44.7402C130.137 45.4238 129.802 46.0517 129.309 46.5446C128.817 47.0375 128.189 47.3731 127.506 47.5091C126.822 47.6451 126.114 47.5753 125.47 47.3086C124.826 47.0418 124.276 46.5901 123.889 46.0106C123.502 45.431 123.296 44.7496 123.296 44.0526C123.296 43.1179 123.667 42.2215 124.327 41.5606C124.988 40.8997 125.884 40.5284 126.818 40.5284Z" fill="white"/>
<path d="M105.682 49.3389C106.727 49.3389 107.749 49.0289 108.618 48.448C109.487 47.8672 110.164 47.0415 110.564 46.0756C110.964 45.1097 111.068 44.0467 110.865 43.0213C110.661 41.9959 110.157 41.0539 109.418 40.3146C108.679 39.5753 107.738 39.0718 106.713 38.8679C105.688 38.6639 104.625 38.7686 103.66 39.1687C102.694 39.5688 101.869 40.2464 101.288 41.1157C100.708 41.985 100.398 43.0071 100.398 44.0526C100.398 45.4546 100.955 46.7992 101.946 47.7906C102.937 48.782 104.281 49.3389 105.682 49.3389ZM105.682 40.5284C106.379 40.5284 107.06 40.7351 107.639 41.1223C108.218 41.5096 108.67 42.06 108.937 42.704C109.203 43.3479 109.273 44.0565 109.137 44.7402C109.001 45.4238 108.666 46.0517 108.173 46.5446C107.68 47.0375 107.053 47.3731 106.369 47.5091C105.686 47.6451 104.978 47.5753 104.334 47.3086C103.69 47.0418 103.14 46.5901 102.753 46.0106C102.366 45.431 102.159 44.7496 102.159 44.0526C102.159 43.1179 102.53 42.2215 103.191 41.5606C103.852 40.8997 104.748 40.5284 105.682 40.5284Z" fill="white"/>
<path d="M147.955 66.96V56.2111C149.945 55.8067 151.735 54.7262 153.021 53.1526C154.307 51.579 155.009 49.6092 155.009 47.5768C155.009 45.5445 154.307 43.5746 153.021 42.0011C151.735 40.4275 149.945 39.3469 147.955 38.9425V28.1937C147.955 14.7576 140.249 7.0484 126.818 7.0484H105.682C92.2515 7.0484 84.5455 14.7576 84.5455 28.1937V38.9425C82.5546 39.3469 80.7648 40.4275 79.4791 42.0011C78.1935 43.5746 77.4912 45.5445 77.4912 47.5768C77.4912 49.6092 78.1935 51.579 79.4791 53.1526C80.7648 54.7262 82.5546 55.8067 84.5455 56.2111V66.96H147.955ZM147.955 42.5901C148.987 42.9533 149.881 43.6281 150.513 44.5214C151.146 45.4146 151.485 46.4822 151.485 47.5768C151.485 48.6714 151.146 49.739 150.513 50.6323C149.881 51.5255 148.987 52.2003 147.955 52.5636V42.5901ZM84.5455 52.5636C83.5134 52.2003 82.6194 51.5255 81.987 50.6323C81.3546 49.739 81.0149 48.6714 81.0149 47.5768C81.0149 46.4822 81.3546 45.4146 81.987 44.5214C82.6194 43.6281 83.5134 42.9533 84.5455 42.5901V52.5636ZM105.682 52.8631C103.94 52.8631 102.237 52.3464 100.789 51.3783C99.3408 50.4102 98.212 49.0342 97.5454 47.4243C96.8789 45.8143 96.7044 44.0428 97.0443 42.3338C97.3841 40.6247 98.2228 39.0548 99.4545 37.8226C100.686 36.5905 102.255 35.7513 103.964 35.4114C105.672 35.0714 107.443 35.2459 109.052 35.9127C110.661 36.5796 112.037 37.7089 113.004 39.1577C113.972 40.6066 114.489 42.3101 114.489 44.0526C114.489 46.3893 113.561 48.6303 111.909 50.2826C110.258 51.9349 108.018 52.8631 105.682 52.8631ZM126.818 52.8631C125.076 52.8631 123.374 52.3464 121.925 51.3783C120.477 50.4102 119.348 49.0342 118.682 47.4243C118.015 45.8143 117.841 44.0428 118.181 42.3338C118.52 40.6247 119.359 39.0548 120.591 37.8226C121.823 36.5905 123.392 35.7513 125.1 35.4114C126.808 35.0714 128.579 35.2459 130.188 35.9127C131.798 36.5796 133.173 37.7089 134.141 39.1577C135.109 40.6066 135.625 42.3101 135.625 44.0526C135.625 46.3893 134.697 48.6303 133.046 50.2826C131.394 51.9349 129.154 52.8631 126.818 52.8631ZM89.8296 26.4316V24.3082L95.052 29.5945L100.398 24.3082L105.682 29.5945L110.966 24.3082L116.25 29.5945L121.534 24.3082L126.818 29.5945L132.102 24.3082L137.386 29.5945L142.67 24.3082V26.7928L137.448 32.0791L132.102 26.7928L126.818 32.0791L121.534 26.7928L116.25 32.0791L110.966 26.7928L105.682 32.0791L100.398 26.7487L95.1137 31.9469L89.8296 26.4756V26.4316Z" fill="white"/>
</g>
<defs>
<clipPath id="clip0">
<rect width="155" height="66.96" fill="white"/>
</clipPath>
</defs>
</svg>
